<?xml version="1.0" standalone="no"?>
<!DOCTYPE svg PUBLIC "-//W3C//DTD SVG 20010904//EN"
 "http://www.w3.org/TR/2001/REC-SVG-20010904/DTD/svg10.dtd">
<svg version="1.0" xmlns="http://www.w3.org/2000/svg"
 width="2000.000000pt" height="1300.000000pt" viewBox="0 0 2000.000000 1300.000000"
 preserveAspectRatio="xMidYMid meet">

<g transform="translate(0.000000,1300.000000) scale(0.100000,-0.100000)"
fill="#000000" stroke="none">
<path d="M2300 9589 c0 -32 -12 -144 -95 -869 -19 -168 -51 -453 -70 -635 -19
-181 -37 -340 -39 -353 -2 -13 1 -21 7 -19 6 2 11 14 12 28 3 41 16 141 25
194 5 28 11 74 15 104 3 29 7 56 9 60 4 6 8 42 22 181 6 61 32 268 39 315 3
17 12 89 20 160 16 135 29 177 50 168 32 -12 62 -157 95 -453 6 -52 15 -117
20 -145 5 -27 26 -169 45 -315 20 -146 42 -303 50 -350 7 -47 16 -119 19 -160
4 -41 11 -102 16 -135 5 -33 12 -85 15 -115 4 -30 11 -75 15 -101 5 -25 12
-79 15 -120 4 -40 14 -85 22 -97 8 -13 46 -37 83 -54 85 -37 78 -55 -20 -55
-95 0 -124 19 -135 92 -7 49 -22 121 -41 200 -8 34 -16 74 -19 90 -6 42 -41
216 -60 305 -23 105 -22 99 -30 160 -4 30 -15 89 -25 130 -9 41 -23 101 -29
133 -24 110 -48 71 -106 -170 -62 -259 -92 -370 -108 -390 -5 -7 -7 -20 -3
-28 3 -9 -1 -18 -9 -21 -8 -4 -15 -13 -15 -22 0 -8 -3 -13 -6 -9 -12 11 -14
111 -4 172 5 33 12 85 15 115 4 30 8 67 10 83 2 15 -1 27 -6 27 -5 0 -9 -3 -9
-7 0 -26 -33 -282 -45 -348 -47 -262 -68 -371 -75 -378 -6 -7 -205 -37 -246
-37 -11 0 -19 47 -30 180 -3 36 -18 180 -35 320 -16 140 -38 334 -49 430 -10
96 -28 249 -39 340 -11 91 -37 304 -56 474 -20 171 -37 311 -39 313 -2 2 -6
-23 -9 -54 -58 -538 -118 -993 -172 -1310 -62 -361 -158 -791 -182 -813 -4 -5
-54 -22 -110 -39 -57 -18 -103 -37 -103 -42 0 -6 6 -9 14 -6 8 3 16 -2 19 -12
3 -14 -2 -17 -24 -17 -16 0 -29 4 -29 8 0 5 -4 7 -8 4 -5 -3 -9 1 -10 9 -1 8
-3 22 -4 30 -1 8 -5 12 -9 9 -11 -6 -29 29 -29 55 0 12 -4 21 -9 21 -11 0
-121 224 -121 246 0 15 -35 54 -48 54 -12 0 -42 -95 -42 -129 0 -15 -5 -32
-12 -39 -7 -7 -9 -12 -6 -12 4 0 -2 -26 -13 -57 -12 -32 -23 -71 -26 -88 -2
-16 -9 -34 -15 -40 -8 -7 -9 -6 -4 3 4 6 2 12 -4 12 -10 0 -8 200 4 295 5 40
20 213 31 355 8 102 27 223 37 235 4 5 8 17 8 28 0 13 6 18 22 15 25 -3 35
-31 68 -178 33 -149 41 -180 51 -180 6 0 8 8 5 18 -5 15 -47 317 -111 792 -17
126 -23 157 -28 130 -6 -32 -26 -231 -117 -1165 -16 -165 -32 -336 -35 -380
-4 -44 -8 -91 -10 -105 -2 -14 -6 -63 -10 -110 -3 -47 -8 -97 -11 -112 -5 -27
-1 -30 188 -122 351 -172 599 -357 834 -621 270 -305 487 -710 632 -1180 66
-213 111 -438 167 -830 45 -314 46 -318 57 -235 5 36 24 161 43 279 20 118 33
223 29 233 -3 10 -1 18 4 18 5 0 19 51 31 113 111 561 318 1057 600 1430 247
328 564 591 925 768 66 33 146 72 176 87 l55 27 0 65 c0 103 -35 550 -80 1025
-43 450 -73 683 -99 780 -12 43 -14 47 -19 25 -4 -14 -11 -81 -17 -150 -24
-272 -85 -704 -126 -890 -45 -200 -126 -474 -144 -485 -12 -7 -138 33 -192 62
-53 29 -46 4 -83 278 -15 105 -29 197 -32 205 -4 8 -5 21 -4 28 1 7 -5 61 -14
120 -9 59 -25 167 -36 241 -10 74 -22 137 -25 140 -7 6 0 -83 9 -129 3 -14 8
-54 11 -90 4 -36 13 -110 21 -165 8 -55 17 -128 20 -162 3 -34 8 -72 10 -85 8
-39 24 -179 29 -249 3 -36 9 -76 15 -90 9 -24 51 -67 105 -107 17 -13 23 -23
15 -23 -125 -13 -158 10 -175 122 -4 24 -10 49 -14 54 -4 6 -13 46 -19 90 -7
44 -16 91 -20 105 -8 23 -21 82 -37 165 -3 17 -10 50 -15 75 -5 25 -11 54 -13
65 -15 76 -49 231 -52 237 -2 3 -12 5 -22 4 -17 -3 -56 -98 -97 -236 -23 -80
-57 -153 -77 -168 -10 -7 -18 -19 -18 -25 0 -7 7 -3 15 7 8 11 15 15 15 9 0
-6 -7 -16 -15 -23 -8 -7 -12 -17 -8 -23 3 -5 1 -7 -5 -3 -5 3 -9 23 -7 44 21
227 45 397 59 420 2 4 7 35 11 69 4 35 9 73 10 85 2 13 9 61 15 108 6 47 17
123 25 170 8 47 19 146 25 220 10 124 25 200 40 200 14 0 38 -40 43 -71 3 -19
13 -74 22 -124 9 -49 22 -142 29 -205 7 -63 16 -122 19 -130 3 -8 9 -39 12
-69 6 -58 15 -82 15 -39 0 14 -31 246 -69 514 -38 269 -73 517 -77 552 -7 68
-24 85 -24 25 0 -85 -102 -1093 -135 -1333 -39 -285 -104 -632 -127 -673 -7
-13 -17 -17 -36 -13 -24 5 -87 12 -167 20 -34 4 -27 -27 -64 286 -12 96 -46
382 -76 635 -30 253 -62 525 -70 605 -9 80 -36 312 -61 515 -24 204 -51 428
-59 499 -16 130 -25 170 -25 105z m-785 -1283 c8 -28 19 -98 25 -156 7 -58 22
-172 35 -255 13 -82 27 -184 30 -225 4 -41 20 -169 37 -285 25 -172 45 -432
30 -387 -2 7 -8 10 -13 7 -5 -4 -6 2 -2 11 5 13 3 15 -7 9 -8 -5 -11 -4 -6 3
3 5 2 12 -3 14 -8 2 -32 87 -45 163 -2 12 -11 42 -20 68 -9 26 -25 96 -37 155
-12 59 -25 112 -29 117 -7 9 -24 86 -21 93 3 6 -28 32 -38 32 -6 0 -20 -33
-31 -72 -11 -40 -27 -93 -36 -118 -29 -86 -56 -175 -57 -192 -1 -12 -5 -14
-13 -7 -8 7 -15 6 -20 -2 -4 -8 -3 -9 4 -5 7 4 12 2 12 -3 0 -6 -6 -11 -12
-11 -10 0 -10 -2 0 -9 11 -6 10 -10 -3 -15 -25 -9 -18 91 25 354 5 36 15 99
20 140 14 99 41 263 45 270 1 3 6 30 9 60 12 103 16 125 32 210 24 126 59 141
89 36z m2495 -606 c16 -12 22 -61 45 -330 14 -157 27 -301 30 -320 3 -19 7
-62 10 -95 3 -33 7 -85 10 -115 5 -57 8 -185 6 -255 -1 -30 -4 -36 -11 -25 -5
8 -10 11 -11 5 -1 -23 -31 82 -64 226 -2 8 -10 40 -19 69 -9 30 -16 63 -16 74
0 22 -27 56 -44 56 -10 0 -39 -40 -94 -131 -22 -36 -56 -58 -70 -45 -8 9 12
133 31 186 29 81 87 346 102 460 3 30 10 71 15 90 5 19 11 53 15 75 3 22 12
50 20 62 8 12 15 30 15 40 1 16 2 16 12 -2 6 -11 14 -22 18 -25z m-2264 -822
c2 1 4 -1 3 -5 0 -5 -7 -7 -16 -5 -8 2 -13 -1 -9 -6 3 -5 -1 -9 -8 -9 -8 0
-12 7 -8 15 3 9 1 13 -4 9 -5 -3 -11 6 -12 20 l-2 27 26 -25 c14 -13 27 -23
30 -21z m-263 -1124 c116 -114 191 -211 193 -248 3 -42 5 -45 13 -16 l7 25 6
-28 c3 -15 2 -30 -3 -33 -4 -2 -41 34 -81 81 -40 47 -117 131 -170 187 -58 60
-98 110 -98 123 0 15 -3 16 -9 7 -6 -11 -10 -9 -14 7 -5 20 -5 20 34 -2 22
-12 77 -58 122 -103z m969 -1314 c-4 -3 -7 -21 -7 -40 0 -19 -4 -38 -9 -42 -6
-4 -11 -24 -12 -45 -2 -36 -6 -64 -20 -123 -8 -34 -19 -103 -28 -178 -3 -23
-8 -47 -12 -53 -6 -11 -8 -23 -18 -109 -4 -30 -10 -71 -13 -90 -4 -19 -7 -42
-7 -50 -1 -17 -20 -40 -34 -40 -15 0 -40 89 -45 160 -5 70 8 135 23 125 6 -4
10 1 10 9 0 8 9 20 20 26 11 6 20 20 20 31 0 11 4 28 9 37 5 9 11 35 14 57 3
22 11 53 16 68 6 16 11 42 11 58 0 17 3 28 8 26 4 -3 8 13 9 36 2 22 7 45 13
51 5 5 10 21 10 33 0 13 7 38 16 55 12 23 18 28 24 17 5 -7 6 -16 2 -19z"/>
<path d="M5280 7544 c-115 -8 -253 -26 -276 -36 -22 -10 -14 -16 113 -79 147
-72 229 -134 257 -193 35 -73 18 -141 -94 -386 -59 -128 -151 -332 -325 -715
-43 -93 -103 -228 -135 -300 -79 -179 -174 -367 -228 -450 -52 -82 -167 -227
-212 -270 -30 -28 -110 -137 -110 -149 0 -4 296 -6 658 -6 l657 1 -70 61
c-129 113 -259 252 -289 308 -24 44 -30 66 -29 116 1 74 38 168 232 594 149
326 221 472 237 477 6 2 31 -40 56 -94 50 -107 258 -589 258 -598 0 -3 40
-101 88 -218 49 -117 95 -228 102 -247 14 -36 165 -386 225 -518 18 -40 36
-73 41 -73 21 0 72 93 165 302 227 504 268 598 304 674 20 44 61 134 90 200
192 435 275 599 291 573 11 -17 156 -349 195 -448 17 -41 62 -149 101 -239 38
-90 93 -222 121 -295 48 -123 51 -137 52 -221 0 -80 -3 -95 -28 -141 -16 -28
-67 -88 -114 -135 l-86 -84 724 -3 c397 -1 727 2 731 6 8 8 -78 140 -207 317
-94 130 -233 435 -565 1235 -56 135 -133 322 -172 415 -143 340 -143 371 1
507 46 45 69 73 65 83 -5 13 -88 15 -687 15 l-680 0 112 -81 c159 -115 193
-167 171 -265 -28 -122 -333 -794 -361 -794 -3 0 -38 78 -77 173 -136 332
-240 583 -304 737 -36 85 -71 172 -78 192 -8 21 -21 40 -29 44 -17 8 -794 14
-891 8z"/>
<path d="M9571 7543 l-144 -4 95 -89 c52 -49 101 -103 108 -120 25 -59 7 -115
-141 -438 -49 -106 -89 -194 -89 -197 0 -2 -38 -86 -84 -187 -188 -410 -366
-820 -366 -844 0 -40 116 -238 221 -379 62 -83 226 -254 293 -306 44 -34 188
-119 202 -119 7 0 15 19 19 43 51 318 135 613 211 734 88 142 198 238 438 386
l110 67 -387 0 c-213 0 -387 4 -387 9 0 4 33 77 74 162 40 85 108 228 151 319
239 505 253 532 263 513 15 -29 172 -389 277 -638 53 -126 128 -302 165 -390
281 -659 296 -702 281 -793 -12 -73 -36 -118 -94 -180 -47 -49 -87 -108 -87
-127 0 -3 329 -5 730 -5 449 0 730 4 730 9 0 6 -4 13 -10 16 -15 9 -236 308
-298 404 -31 46 -84 150 -118 230 -34 80 -74 173 -89 206 -52 113 -374 886
-482 1155 -58 145 -77 206 -89 283 l-15 98 80 87 81 87 -128 6 c-125 7 -1242
7 -1521 2z"/>
<path d="M13310 7539 c-332 -17 -597 -116 -865 -325 -203 -158 -343 -348 -423
-574 -53 -151 -67 -231 -67 -390 0 -162 11 -235 61 -388 130 -400 421 -678
870 -831 225 -77 283 -85 594 -85 248 -1 287 1 395 22 227 45 411 25 550 -59
74 -44 185 -164 255 -274 30 -47 70 -107 88 -133 l32 -47 0 903 0 902 -622 0
-622 0 94 -61 c52 -34 124 -80 160 -102 36 -22 68 -45 72 -51 4 -6 8 -165 8
-353 l0 -342 -26 -20 c-46 -36 -150 -63 -244 -63 -230 -1 -447 165 -547 416
-111 280 -119 773 -16 1060 71 200 233 383 386 435 175 60 374 15 535 -121 87
-73 130 -136 192 -277 l54 -122 35 68 c36 71 222 468 321 684 l57 126 -195 6
c-247 9 -941 6 -1132 -4z"/>
<path d="M18125 7540 c-294 -17 -521 -93 -780 -265 -242 -160 -435 -404 -519
-657 -74 -224 -74 -532 0 -756 77 -231 242 -454 459 -617 166 -124 430 -237
660 -282 130 -25 476 -25 595 1 371 79 659 256 893 546 58 72 136 215 124 227
-12 12 -73 -20 -166 -86 -200 -144 -382 -240 -583 -310 -153 -52 -247 -71
-355 -71 -242 0 -421 117 -538 350 -76 152 -105 298 -112 556 -10 364 35 569
168 766 65 96 151 173 248 221 l85 42 121 0 122 0 84 -42 c125 -62 191 -127
316 -314 106 -158 107 -159 119 -131 7 15 63 133 125 262 61 129 131 279 155
333 24 54 60 129 79 168 l35 69 -602 -2 c-332 0 -661 -4 -733 -8z"/>
<path d="M15242 7508 c88 -85 160 -211 192 -338 30 -119 37 -344 34 -1055 -4
-684 -4 -691 -26 -765 -13 -41 -37 -100 -54 -130 -31 -57 -133 -190 -146 -190
-4 -1 -23 -14 -42 -30 l-34 -30 712 0 713 0 -60 50 c-109 91 -185 218 -217
366 -15 70 -17 155 -18 714 -1 848 3 981 37 1085 35 105 73 170 148 249 102
110 156 101 -609 104 l-664 2 34 -32z"/>
<path d="M740 7319 c1 -24 38 -175 39 -157 1 20 -28 160 -34 167 -3 2 -5 -2
-5 -10z"/>
<path d="M780 7123 c0 -4 5 -15 10 -23 8 -13 10 -13 10 2 0 9 -4 20 -10 23 -5
3 -10 3 -10 -2z"/>
<path d="M811 7024 c0 -11 3 -14 6 -6 3 7 2 16 -1 19 -3 4 -6 -2 -5 -13z"/>
<path d="M821 6964 c0 -11 3 -14 6 -6 3 7 2 16 -1 19 -3 4 -6 -2 -5 -13z"/>
<path d="M830 6929 c0 -4 7 -20 15 -35 8 -16 15 -22 15 -13 0 14 -29 61 -30
48z"/>
<path d="M859 6843 c-5 -36 -2 -70 8 -80 18 -19 36 -16 28 5 -4 9 -10 27 -12
40 -3 12 -10 22 -15 22 -5 0 -6 5 -3 10 3 6 4 10 1 10 -3 0 -7 -3 -7 -7z"/>
<path d="M8437 4380 c-13 -30 -88 -189 -166 -352 -77 -164 -141 -300 -141
-303 0 -3 40 -5 89 -5 l89 0 18 50 18 50 112 0 112 0 12 -50 12 -50 99 0 c54
0 99 2 99 4 0 5 -43 99 -213 468 -126 274 -111 253 -140 188z m61 -335 c18
-36 32 -68 32 -70 0 -8 -140 -6 -140 3 -1 10 64 132 70 132 3 0 20 -29 38 -65z"/>
<path d="M7558 4379 c-145 -21 -239 -119 -268 -278 -29 -158 42 -306 177 -373
61 -30 76 -33 158 -33 88 0 219 30 253 57 8 8 12 52 12 159 l0 149 -121 0
c-96 0 -119 -3 -112 -12 86 -109 99 -143 69 -183 -14 -20 -104 -33 -150 -21
-42 10 -93 63 -110 113 -32 93 -15 177 48 239 68 69 141 78 264 32 29 -11 56
-18 58 -15 3 2 8 36 11 75 l6 70 -29 6 c-31 6 -103 14 -169 20 -22 2 -66 0
-97 -5z"/>
<path d="M12832 4378 c-9 -9 -12 -97 -12 -335 l0 -323 82 0 81 0 -6 155 c-5
139 -4 156 11 164 14 7 54 -26 207 -169 157 -148 193 -177 207 -169 17 9 18
34 18 334 l0 325 -85 0 -85 0 -2 -166 -3 -167 -192 182 c-105 99 -195 181
-200 181 -5 0 -14 -5 -21 -12z"/>
<path d="M13945 4374 c-156 -40 -246 -163 -247 -336 0 -112 22 -169 96 -244
52 -53 71 -65 130 -83 105 -32 187 -27 319 21 l57 21 0 153 0 154 -106 0
c-123 0 -117 11 -68 -122 16 -42 26 -79 23 -83 -4 -3 -31 -11 -61 -17 -48 -10
-62 -9 -103 6 -129 50 -164 245 -62 351 68 70 135 79 266 34 30 -11 56 -17 59
-14 3 2 7 35 10 73 4 61 2 70 -14 76 -22 9 -270 17 -299 10z"/>
<path d="M4347 4364 c-4 -4 -7 -43 -7 -86 l0 -79 30 16 c16 8 49 15 75 15 l45
0 0 -255 0 -255 95 0 95 0 0 256 0 256 58 -5 c31 -2 67 -8 80 -12 23 -8 23 -7
20 71 l-3 79 -241 3 c-132 1 -243 -1 -247 -4z"/>
<path d="M5547 4363 c-4 -3 -7 -55 -7 -115 l0 -108 -100 0 -100 0 0 110 0 110
-100 0 -100 0 0 -320 0 -320 95 0 94 0 3 128 3 127 102 3 102 3 3 -128 3 -128
93 -3 92 -3 0 326 0 325 -88 0 c-49 0 -92 -3 -95 -7z"/>
<path d="M6080 4045 l0 -325 205 0 205 0 0 65 0 65 -116 0 -116 0 6 31 c3 17
6 47 6 65 l0 34 95 0 95 0 0 80 0 80 -95 0 -95 0 0 51 0 52 110 -8 110 -7 0
71 0 71 -205 0 -205 0 0 -325z"/>
<path d="M9757 4363 c-4 -3 -7 -147 -7 -320 l0 -313 95 0 94 0 3 123 3 122
108 3 107 3 0 -131 0 -130 95 0 95 0 0 320 0 320 -97 0 -96 0 7 -110 6 -110
-121 0 -122 0 7 73 c4 39 9 91 12 115 l6 42 -94 0 c-52 0 -98 -3 -101 -7z"/>
<path d="M10700 4045 l0 -325 210 0 210 0 0 60 0 60 -120 0 -120 0 0 75 0 75
100 0 100 0 0 69 0 68 -52 7 c-29 3 -77 6 -106 6 l-53 0 3 48 3 47 120 3 120
3 -3 64 -4 65 -204 0 -204 0 0 -325z"/>
<path d="M11460 4045 l0 -326 93 3 92 3 0 148 c0 81 2 147 5 147 3 0 48 -67
99 -150 l93 -150 89 0 c49 0 89 4 89 9 0 5 -34 67 -75 136 -41 70 -75 130 -75
134 0 5 9 16 21 27 12 10 32 38 46 62 50 85 12 205 -80 254 -38 21 -58 23
-219 26 l-178 4 0 -327z m297 179 c13 -8 26 -26 29 -40 10 -37 -12 -99 -41
-118 -27 -17 -88 -26 -92 -13 -2 4 -3 50 -3 103 l0 97 43 -7 c23 -4 52 -14 64
-22z"/>
<path d="M12320 4045 l0 -325 95 0 95 0 0 325 0 325 -95 0 -95 0 0 -325z"/>
<path d="M8970 4280 c0 -44 3 -80 8 -80 4 0 16 7 26 15 11 9 41 15 68 15 l48
0 0 -255 0 -255 95 0 95 0 0 255 0 255 48 0 c26 -1 58 -7 72 -15 14 -8 28 -14
33 -15 4 0 7 36 7 80 l0 80 -250 0 -250 0 0 -80z"/>
</g>
</svg>
